<svg width="56" height="57" fill="none" xmlns="http://www.w3.org/2000/svg"><path fill-rule="evenodd" clip-rule="evenodd" d="M38.162 3.586a.628.628 0 01-.58-.386l-.8-1.938a.627.627 0 111.16-.48l.8 1.938a.626.626 0 01-.58.866zm3.943-.072a.625.625 0 01-.597-.818L42.151.7a.63.63 0 01.79-.406.63.63 0 01.404.79l-.642 1.996a.63.63 0 01-.598.434z" fill="#FBBC02"/><path fill-rule="evenodd" clip-rule="evenodd" d="M15.012 6.121h-4.769a.628.628 0 010-1.255h4.769a.628.628 0 010 1.255z" fill="#000"/><path fill-rule="evenodd" clip-rule="evenodd" d="M12.627 8.506A.628.628 0 0112 7.879v-4.77a.628.628 0 011.255 0v4.77a.628.628 0 01-.628.627z" fill="#000"/><path fill-rule="evenodd" clip-rule="evenodd" d="M45.458 44.58a2.18 2.18 0 102.178 2.178c0-1.2-.978-2.179-2.178-2.179zm0 5.611a3.437 3.437 0 01-3.433-3.433 3.437 3.437 0 013.433-3.434 3.438 3.438 0 013.434 3.434 3.438 3.438 0 01-3.434 3.433z" fill="#FBBC02"/><path fill-rule="evenodd" clip-rule="evenodd" d="M25.026 55.587a.627.627 0 01-.625-.6l-.09-1.992a.628.628 0 011.255-.056l.088 1.993a.626.626 0 01-.598.655h-.03zm-8.036-5.473a.621.621 0 01-.5-.248.625.625 0 01.118-.879l1.589-1.207a.627.627 0 11.76.999l-1.588 1.207a.627.627 0 01-.38.128zm14.928-.774a.646.646 0 01-.326-.09l-1.704-1.039a.625.625 0 01-.209-.86.625.625 0 01.861-.212l1.704 1.037a.629.629 0 01-.326 1.164z" fill="#000"/><path fill-rule="evenodd" clip-rule="evenodd" d="M20.157 42.906h-7.67c-1.79 0-3.536.544-5.01 1.566l-6.41 4.437v-25.39a2.427 2.427 0 012.427-2.426h19.429v6.713a2.43 2.43 0 002.43 2.427h7.333v10.245a2.426 2.426 0 01-2.427 2.428H20.157z" fill="#fff"/><path fill-rule="evenodd" clip-rule="evenodd" d="M1.067 49.536a.63.63 0 01-.627-.627v-25.39a3.057 3.057 0 013.054-3.054h19.429c.346 0 .627.278.627.627v6.714c0 .991.808 1.8 1.802 1.8h7.334c.346 0 .627.278.627.627v10.245a3.058 3.058 0 01-3.054 3.054h-3.494a.628.628 0 010-1.254h3.494c.991 0 1.8-.809 1.8-1.8V30.86h-6.707a3.059 3.059 0 01-3.057-3.054V21.72h-18.8a1.8 1.8 0 00-1.8 1.8v24.189l5.426-3.755a9.392 9.392 0 015.366-1.676h7.67a.628.628 0 010 1.255h-7.67a8.143 8.143 0 00-4.653 1.453l-6.41 4.437a.613.613 0 01-.357.113z" fill="#000"/><path fill-rule="evenodd" clip-rule="evenodd" d="M43.408 8.418h8.706a2.426 2.426 0 012.427 2.427v25.39l-6.41-4.436a8.782 8.782 0 00-5.01-1.566H32.687V23.52a2.426 2.426 0 00-2.427-2.427h-7.336V10.845a2.428 2.428 0 012.43-2.427h18.055z" fill="#fff"/><path fill-rule="evenodd" clip-rule="evenodd" d="M54.541 36.861a.61.61 0 01-.356-.11l-6.41-4.438a8.132 8.132 0 00-4.653-1.453H32.686a.628.628 0 01-.627-.627v-6.714c0-.994-.809-1.8-1.8-1.8h-7.336a.628.628 0 01-.628-.627V10.845a3.059 3.059 0 013.057-3.055h11.699a.628.628 0 010 1.255H25.352c-.994 0-1.802.808-1.802 1.8v9.62h6.709a3.056 3.056 0 013.054 3.054v6.086h9.809c1.927 0 3.782.58 5.366 1.677l5.426 3.754V10.844c0-.99-.808-1.8-1.8-1.8h-8.706a.628.628 0 010-1.255h8.706a3.058 3.058 0 013.055 3.056v25.389a.623.623 0 01-.627.627z" fill="#000"/><path fill-rule="evenodd" clip-rule="evenodd" d="M32.88 23.434v6.98h-7.626a2.525 2.525 0 01-2.524-2.525v-6.98h7.627a2.521 2.521 0 012.522 2.525z" fill="#FBBC02"/><path fill-rule="evenodd" clip-rule="evenodd" d="M23.357 21.537v6.353a1.9 1.9 0 001.897 1.897h6.998v-6.352a1.897 1.897 0 00-1.895-1.898h-7zm9.522 9.505h-7.625a3.154 3.154 0 01-3.152-3.152v-6.98c0-.347.279-.628.628-.628h7.627a3.154 3.154 0 013.15 3.152v6.98a.626.626 0 01-.628.628z" fill="#FBBC02"/><path fill-rule="evenodd" clip-rule="evenodd" d="M18.985 26.805H6.27a.628.628 0 010-1.255h12.715a.628.628 0 010 1.255zm0 4.895H6.27a.628.628 0 010-1.255h12.715a.628.628 0 010 1.254zm8.45 4.893h-5.27a.628.628 0 010-1.255h5.27a.628.628 0 010 1.255zm-12.549 0H6.27a.628.628 0 010-1.255h8.616a.628.628 0 010 1.255zM49.765 24.17H37.05a.624.624 0 01-.627-.628c0-.346.279-.627.627-.627h12.715a.628.628 0 010 1.255zm0-4.895H37.05a.624.624 0 01-.627-.627c0-.346.279-.628.627-.628h12.715a.628.628 0 010 1.255zM33.87 14.38H28.6a.628.628 0 010-1.255h5.27a.628.628 0 010 1.256zm15.895 0H41.15a.628.628 0 010-1.255h8.616a.628.628 0 010 1.256z" fill="#000"/></svg>