<svg width="102" height="97" fill="none" xmlns="http://www.w3.org/2000/svg"><path fill-rule="evenodd" clip-rule="evenodd" d="M90.641 6.463a.804.804 0 01-.547-.217.804.804 0 01-.035-1.13l3.082-3.281a.798.798 0 011.13-.036c.323.303.339.81.035 1.131l-3.08 3.28a.805.805 0 01-.585.253zm6.887 18.324a.746.746 0 01-.118-.009l-4.452-.665a.802.802 0 01-.675-.91.803.803 0 01.912-.673l4.449.665a.8.8 0 01-.115 1.592zM73.788 6.264a.797.797 0 01-.778-.622l-1.008-4.387a.802.802 0 011.562-.357l1.005 4.387a.8.8 0 01-.781.979z" fill="#000"/><path fill-rule="evenodd" clip-rule="evenodd" d="M23.18 88.067h16.488V64.366H23.18v23.701z" fill="#FBBC02"/><path fill-rule="evenodd" clip-rule="evenodd" d="M47.035 88.067h16.489V51.882H47.035v36.185z" fill="#000"/><path fill-rule="evenodd" clip-rule="evenodd" d="M70.891 88.067H87.38V34.372H70.89v53.695z" fill="#FBBC02"/><path fill-rule="evenodd" clip-rule="evenodd" d="M17.797 55.996a.8.8 0 01-.5-1.425l19.001-15.195a.807.807 0 01.5-.176h22.287l19.452-22.017a.8.8 0 111.197 1.06L60.045 40.53a.806.806 0 01-.601.27H37.079L18.296 55.82a.794.794 0 01-.5.176z" fill="#000"/><path fill-rule="evenodd" clip-rule="evenodd" d="M20.92 55.196a3.123 3.123 0 11-6.247 0 3.123 3.123 0 016.247 0z" fill="#fff"/><path fill-rule="evenodd" clip-rule="evenodd" d="M17.797 52.872a2.327 2.327 0 00-2.324 2.324 2.327 2.327 0 002.324 2.323 2.327 2.327 0 002.323-2.323 2.327 2.327 0 00-2.323-2.324zm0 6.247a3.928 3.928 0 01-3.924-3.923 3.928 3.928 0 013.924-3.924 3.928 3.928 0 013.923 3.924 3.928 3.928 0 01-3.923 3.923z" fill="#000"/><path fill-rule="evenodd" clip-rule="evenodd" d="M40.184 40.033a3.124 3.124 0 11-6.248 0 3.124 3.124 0 016.248 0z" fill="#fff"/><path fill-rule="evenodd" clip-rule="evenodd" d="M37.06 37.71a2.325 2.325 0 000 4.647 2.327 2.327 0 002.323-2.324 2.327 2.327 0 00-2.323-2.323zm0 6.247a3.928 3.928 0 01-3.924-3.924 3.928 3.928 0 013.924-3.923 3.928 3.928 0 013.924 3.923 3.928 3.928 0 01-3.924 3.924z" fill="#000"/><path fill-rule="evenodd" clip-rule="evenodd" d="M62.177 40.033a3.124 3.124 0 11-6.248 0 3.124 3.124 0 016.248 0z" fill="#fff"/><path fill-rule="evenodd" clip-rule="evenodd" d="M59.053 37.71a2.327 2.327 0 00-2.323 2.323 2.327 2.327 0 002.323 2.324 2.325 2.325 0 000-4.647zm0 6.247a3.928 3.928 0 01-3.924-3.924 3.928 3.928 0 013.924-3.923 3.928 3.928 0 013.924 3.923 3.928 3.928 0 01-3.924 3.924z" fill="#000"/><path fill-rule="evenodd" clip-rule="evenodd" d="M82.26 17.713a3.124 3.124 0 11-6.248 0 3.124 3.124 0 016.247 0z" fill="#fff"/><path fill-rule="evenodd" clip-rule="evenodd" d="M79.136 15.39a2.327 2.327 0 00-2.324 2.323 2.327 2.327 0 002.324 2.324 2.327 2.327 0 002.323-2.324 2.327 2.327 0 00-2.323-2.323zm0 6.247a3.928 3.928 0 01-3.924-3.924 3.928 3.928 0 013.924-3.923 3.928 3.928 0 013.923 3.923 3.928 3.928 0 01-3.923 3.924zm21.321 74.473H8.426a.8.8 0 010-1.6h92.031a.8.8 0 010 1.6z" fill="#000"/></svg>