<svg width="45" height="37" fill="none" xmlns="http://www.w3.org/2000/svg"><path fill-rule="evenodd" clip-rule="evenodd" d="M2.465 5.614c-.861 0-1.564.703-1.564 1.564a1.565 1.565 0 101.564-1.564zm0 4.03A2.468 2.468 0 010 7.178a2.469 2.469 0 012.465-2.465 2.467 2.467 0 010 4.93zm41.531 19.323h-.017l-1.421-.049a.451.451 0 01.016-.9h.014l1.422.048a.451.451 0 01-.014.901zm-1.435 3.363a.445.445 0 01-.303-.117l-1.052-.957a.45.45 0 11.607-.667l1.053.959a.45.45 0 01-.305.782zM9.3 36.136h26.853V18.204H9.299v17.932z" fill="#192331"/><path fill-rule="evenodd" clip-rule="evenodd" d="M9.75 35.686h25.952V18.655H9.75v17.03zm26.403.9H9.299a.45.45 0 01-.45-.45V18.204a.45.45 0 01.45-.45h26.854a.45.45 0 01.45.45v17.932a.45.45 0 01-.45.45z" fill="#192331"/><path fill-rule="evenodd" clip-rule="evenodd" d="M26.413 36.136H9.3L3.08 15.921H9.3l17.113 20.215z" fill="#192331"/><path fill-rule="evenodd" clip-rule="evenodd" d="M9.633 35.686H25.44L9.09 16.37h-5.4l5.943 19.315zm16.78.9H9.3a.452.452 0 01-.43-.318L2.65 16.054a.457.457 0 01.069-.402.454.454 0 01.362-.182H9.3c.133 0 .257.058.344.159l17.112 20.215a.452.452 0 01-.343.743z" fill="#192331"/><path fill-rule="evenodd" clip-rule="evenodd" d="M9.683 24.267h26.853V5.344H9.683v18.923z" fill="#F3F6F5"/><path fill-rule="evenodd" clip-rule="evenodd" d="M10.134 23.816h25.952V5.794H10.134v18.022zm26.402.902H9.683a.45.45 0 01-.45-.451V5.344a.45.45 0 01.45-.45h26.853a.45.45 0 01.45.45v18.923a.45.45 0 01-.45.45z" fill="#192331"/><rect x="11.597" y="3.372" width="26.853" height="18.923" rx=".18" fill="#F3F6F5" stroke="#192331" stroke-width=".901"/><path fill-rule="evenodd" clip-rule="evenodd" d="M13.459 19.374h26.853V.45H13.459v18.923z" fill="#FBBC02"/><path fill-rule="evenodd" clip-rule="evenodd" d="M13.91 18.923h25.95V.901H13.91v18.022zm26.402.901H13.459a.45.45 0 01-.45-.45V.45a.45.45 0 01.45-.451h26.853c.25 0 .45.202.45.45v18.924c0 .248-.2.45-.45.45z" fill="#FBBC02"/><path fill-rule="evenodd" clip-rule="evenodd" d="M13.933 14.94c.08 0 .436-.558.492-.623a8.884 8.884 0 011.398-1.33 4.173 4.173 0 012.477-.847c.71-.008 1.328.378 2.01.508 1.535.292 1.964-1.06 2.043-2.305.05-.784.26-1.593.627-2.29.492-.938 1.352-1.576 2.43-1.623.774-.032 1.537.197 2.265.469 1.483.557 2.992 1.24 4.615.97 1.554-.262 2.527-1.408 2.844-2.917.955-4.534 3.58-2.625 3.58-.796V14.94H13.933zM38.32 29.92l-2.167 6.216H9.299l6.6-18.923h26.853L38.321 29.92z" fill="#F3F6F5"/><path fill-rule="evenodd" clip-rule="evenodd" d="M36.152 36.587H9.3a.45.45 0 01-.425-.6l6.6-18.924a.45.45 0 01.425-.3h26.853a.45.45 0 01.425.598l-3.3 9.461a.45.45 0 11-.85-.297l3.09-8.861H16.22L9.934 35.686h25.9l2.061-5.913a.45.45 0 11.85.296l-2.167 6.215a.448.448 0 01-.426.303z" fill="#192331"/><path fill-rule="evenodd" clip-rule="evenodd" d="M37.92 21.192h-9.492a.45.45 0 010-.9h9.492a.45.45 0 110 .9zm-1.185 2.965h-4.987a.45.45 0 010-.901h4.987a.45.45 0 010 .901z" fill="#192331"/></svg>