<svg width="78" height="83" fill="none" xmlns="http://www.w3.org/2000/svg"><path fill-rule="evenodd" clip-rule="evenodd" d="M39.71 54.049H14.64l9.166 9.382a48.665 48.665 0 0110.88 17.253h9.66a48.64 48.64 0 0110.881-17.253l9.166-9.382H39.71z" fill="#192331"/><path fill-rule="evenodd" clip-rule="evenodd" d="M35.365 79.705h8.304a49.287 49.287 0 0110.858-16.958l7.54-7.719h-45.1l7.54 7.719a49.296 49.296 0 0110.858 16.958zm8.983 1.958h-9.661a.98.98 0 01-.92-.642 47.368 47.368 0 00-10.66-16.906l-9.166-9.382a.98.98 0 01.7-1.663h49.753a.98.98 0 01.701 1.663l-9.166 9.382a47.367 47.367 0 00-10.661 16.906.98.98 0 01-.92.642z" fill="#000"/><path fill-rule="evenodd" clip-rule="evenodd" d="M56.082 6.969l2.84-4.788-2.84 4.788z" fill="#F3F6F5"/><path fill-rule="evenodd" clip-rule="evenodd" d="M56.078 7.948a.976.976 0 01-.838-1.479l2.84-4.788a.977.977 0 011.34-.342.98.98 0 01.344 1.341l-2.84 4.789a.981.981 0 01-.846.48z" fill="#000"/><path fill-rule="evenodd" clip-rule="evenodd" d="M61.644 15.364l5.59.463-5.59-.463z" fill="#F3F6F5"/><path fill-rule="evenodd" clip-rule="evenodd" d="M67.234 16.806a.985.985 0 01-.083-.003l-5.59-.463a.978.978 0 01-.892-1.058.982.982 0 011.057-.895l5.586.464a.98.98 0 01-.078 1.955zm-57.29-4.081H3.285a.98.98 0 010-1.958h6.66a.98.98 0 110 1.958z" fill="#000"/><path fill-rule="evenodd" clip-rule="evenodd" d="M6.615 16.055a.98.98 0 01-.98-.98V8.416a.98.98 0 111.959 0v6.66a.98.98 0 01-.98.979z" fill="#000"/><path fill-rule="evenodd" clip-rule="evenodd" d="M71.44 68.346a2.94 2.94 0 00-2.937 2.937 2.94 2.94 0 002.937 2.938 2.94 2.94 0 002.938-2.938 2.94 2.94 0 00-2.938-2.937zm0 7.834a4.902 4.902 0 01-4.896-4.897c0-2.7 2.198-4.896 4.896-4.896a4.902 4.902 0 014.897 4.896c0 2.7-2.198 4.897-4.897 4.897z" fill="#4284F3"/><path fill-rule="evenodd" clip-rule="evenodd" d="M64.586 53.265c0 3.462-11.222 6.267-25.069 6.267-13.845 0-25.068-2.805-25.068-6.267 0-3.461 11.223-6.267 25.068-6.267 13.847 0 25.069 2.806 25.069 6.267z" fill="#fff"/><path fill-rule="evenodd" clip-rule="evenodd" d="M39.517 47.977c-14.705 0-24.089 3.132-24.089 5.288s9.384 5.288 24.09 5.288c14.703 0 24.088-3.132 24.088-5.288s-9.385-5.288-24.089-5.288zm0 12.535c-12.944 0-26.048-2.49-26.048-7.247s13.104-7.246 26.048-7.246c12.946 0 26.048 2.489 26.048 7.246 0 4.758-13.102 7.247-26.048 7.247z" fill="#000"/><path fill-rule="evenodd" clip-rule="evenodd" d="M67.72 43.081c0 3.894-12.629 7.051-28.203 7.051-15.576 0-28.202-3.157-28.202-7.05 0-3.894 12.627-7.051 28.202-7.051 15.574 0 28.202 3.157 28.202 7.05z" fill="#fff"/><path fill-rule="evenodd" clip-rule="evenodd" d="M39.517 37.01c-16.866 0-27.223 3.536-27.223 6.072 0 2.535 10.357 6.07 27.223 6.07 16.867 0 27.223-3.535 27.223-6.07 0-2.536-10.356-6.072-27.223-6.072zm0 14.101c-14.501 0-29.181-2.758-29.181-8.03 0-5.271 14.68-8.03 29.181-8.03 14.5 0 29.181 2.759 29.181 8.03 0 5.272-14.68 8.03-29.18 8.03z" fill="#000"/><path fill-rule="evenodd" clip-rule="evenodd" d="M71.44 34.504c-3.572 3.577-16.51 6.227-31.923 6.227-18.171 0-32.902-3.683-32.902-8.225 0-4.543 14.73-8.226 32.902-8.226 15.413 0 28.351 2.65 31.923 6.227v3.997z" fill="#fff"/><path fill-rule="evenodd" clip-rule="evenodd" d="M39.517 41.71c-16.425 0-33.882-3.226-33.882-9.204 0-5.98 17.457-9.205 33.882-9.205 15.617 0 28.727 2.618 32.617 6.514a.977.977 0 010 1.385.981.981 0 01-1.387-.002c-2.946-2.95-14.618-5.939-31.23-5.939-19.779 0-31.923 4.22-31.923 7.247 0 3.026 12.144 7.246 31.923 7.246 16.612 0 28.284-2.988 31.23-5.94a.981.981 0 011.387 0 .977.977 0 010 1.384c-3.89 3.897-17 6.514-32.617 6.514z" fill="#000"/><path fill-rule="evenodd" clip-rule="evenodd" d="M56.36 32.506c0 2.325-7.54 4.21-16.843 4.21-9.302 0-16.843-1.885-16.843-4.21 0-2.326 7.541-4.211 16.843-4.211s16.843 1.885 16.843 4.21z" fill="#4284F3"/><path fill-rule="evenodd" clip-rule="evenodd" d="M39.517 29.274c-10.466 0-15.864 2.265-15.864 3.232 0 .966 5.398 3.231 15.864 3.231 10.466 0 15.864-2.265 15.864-3.231 0-.967-5.398-3.232-15.864-3.232zm0 8.422c-6.164 0-17.822-1.085-17.822-5.19 0-4.106 11.658-5.19 17.822-5.19S57.34 28.4 57.34 32.506c0 4.105-11.658 5.19-17.822 5.19z" fill="#4284F3"/><path fill-rule="evenodd" clip-rule="evenodd" d="M35.404 16.16h8.226V1.561h-8.226v14.597z" fill="#000"/><path fill-rule="evenodd" clip-rule="evenodd" d="M36.383 15.18h6.268V2.54h-6.268v12.638zm7.247 1.958h-8.226a.98.98 0 01-.979-.98V1.563a.98.98 0 01.98-.98h8.225c.54 0 .98.439.98.98V16.16a.98.98 0 01-.98.979z" fill="#000"/><path fill-rule="evenodd" clip-rule="evenodd" d="M39.517 31.611l-8.756-15.165h17.512l-8.756 15.165z" fill="#000"/><path fill-rule="evenodd" clip-rule="evenodd" d="M32.458 17.425l7.06 12.228 7.059-12.227h-14.12zm7.06 15.166a.98.98 0 01-.849-.49l-8.756-15.165a.98.98 0 01.848-1.469h17.512a.979.979 0 01.848 1.469L40.365 32.1a.979.979 0 01-.848.49z" fill="#000"/></svg>