<?xml version="1.0" encoding="UTF-8"?>
<svg width="113px" height="110px" viewBox="0 0 113 110" version="1.1" xmlns="http://www.w3.org/2000/svg" xmlns:xlink="http://www.w3.org/1999/xlink">
    <title>Group 88</title>
    <g id="Page-1" stroke="none" stroke-width="1" fill="none" fill-rule="evenodd">
        <g id="Макет-Copy-115" transform="translate(-932.000000, -1623.000000)">
            <g id="Group-81" transform="translate(94.000000, 1219.000000)">
                <g id="Group-2" transform="translate(800.000000, 345.000000)">
                    <g id="Group-88" transform="translate(38.960633, 59.120029)">
                        <path d="M27.2603492,14.5349873 C26.9580859,14.5349873 26.6624094,14.3849535 26.4878578,14.1141607 L23.7221118,9.77415689 C23.4505871,9.34601149 23.5757373,8.78246968 24.001687,8.51167687 C24.4280028,8.23722469 24.9933742,8.36164301 25.2652649,8.78978841 L28.031011,13.1297922 C28.3021697,13.5542782 28.1770195,14.1214794 27.7510697,14.3922722 C27.5984743,14.491075 27.428314,14.5349873 27.2603492,14.5349873" id="Fill-119" fill="#000000"></path>
                        <path d="M47.5116265,16.8220888 C47.3934291,16.8220888 47.273402,16.8001326 47.1577662,16.7525609 C46.6919293,16.5549554 46.4727335,16.0206884 46.6685094,15.5522901 L48.6617641,10.8097564 C48.85754,10.3450174 49.3940025,10.1254557 49.8594734,10.3194019 C50.3253102,10.5170074 50.5445061,11.0512744 50.3483642,11.5196727 L48.3554755,16.2622064 C48.2083691,16.6135052 47.8687803,16.8220888 47.5116265,16.8220888" id="Fill-120" fill="#000000"></path>
                        <path d="M22.2817867,33.1538231 C22.274468,33.1538231 22.2671493,33.1538231 22.2594646,33.1538231 L17.115133,33.0294047 C16.6097751,33.0184267 16.2101727,32.5976 16.2226145,32.092608 C16.2346904,31.5949347 16.6419775,31.1997236 17.1367232,31.1997236 C17.1444079,31.1997236 17.1517266,31.1997236 17.1594113,31.1997236 L22.3037429,31.3241419 C22.8087349,31.3387793 23.2083373,31.7559466 23.1962614,32.2609386 C23.1841855,32.7586119 22.7768985,33.1538231 22.2817867,33.1538231" id="Fill-121" fill="#000000"></path>
                        <path d="M27.4253865,44.0587229 L27.4253865,44.0587229 C19.5917895,54.6196427 15.4076745,60.2367639 3.1286841,64.9390446 C1.16872961,65.6892139 -0.0758195281,67.6140385 0.00358863527,69.7108531 C0.253157149,76.2867273 2.48170883,82.1051135 6.68924368,87.1623523 C8.0314978,88.7761311 10.2417527,89.3762665 12.2017072,88.6224378 C24.4803316,83.9201572 31.3471251,85.3033962 44.23174,87.927159 C49.6677228,89.0359458 55.3068002,88.5712068 60.4873595,86.584173 L65.1987886,84.7801074 L45.1297476,32.3926757 L40.4183185,34.1967413 C35.2377592,36.1801157 30.7305226,39.6016196 27.4253865,44.0587229" id="Fill-122" fill="#4284F3"></path>
                        <path d="M12.9709051,67.3395863 C12.6148492,67.3395863 12.2759922,67.1310026 12.128154,66.7797039 C11.9309143,66.3149648 12.1479145,65.7770386 12.6133854,65.5830924 C16.4816974,63.9400387 19.6488755,61.9200706 22.882654,59.0291744 C23.2595684,58.692513 23.8377476,58.7254473 24.1747749,59.1023616 C24.5110703,59.4792759 24.4788679,60.0574552 24.1019536,60.3941165 C20.7119203,63.4240686 17.3888533,65.5428394 13.327693,67.2663991 C13.2113252,67.3139708 13.0902003,67.3395863 12.9709051,67.3395863" id="Fill-123" fill="#000000"></path>
                        <path d="M30.5936624,53.3132503 C30.3762963,53.3132503 30.1581983,53.2364037 29.9836467,53.0827105 C29.6070983,52.7423898 29.5756278,52.1642106 29.9126551,51.7909556 C30.6265967,50.9932146 31.3643241,50.1625393 32.1331562,49.2952705 C33.1215499,48.1828243 34.2021596,47.1325873 35.3449785,46.1774937 C35.7328709,45.8554698 36.3099524,45.9067009 36.63344,46.2945933 C36.9572936,46.6824857 36.9056966,47.260665 36.5178042,47.5826889 C35.4441472,48.4792327 34.4294061,49.4636011 33.5017577,50.5101788 C32.7303641,51.3774477 31.9911729,52.2117823 31.2754016,53.0095233 C31.0946291,53.2107882 30.8446947,53.3132503 30.5936624,53.3132503" id="Fill-124" fill="#000000"></path>
                        <path d="M65.4154228,54.6562363 C70.9578931,69.1253551 70.8616519,82.6137648 65.1991545,84.7801074 C60.329641,86.6463822 52.9337037,79.5325817 47.4300227,68.305658 C46.5342108,66.4796361 45.6885322,64.5365147 44.9120155,62.5128873 C44.1358647,60.4856006 43.4680311,58.4766106 42.9140036,56.5188518 C39.5093329,44.4905277 40.2602341,34.2589505 45.1297476,32.3926757 C50.7918789,30.2226738 59.8740504,40.1907769 65.4154228,54.6562363" id="Fill-125" fill="#FFFFFF"></path>
                        <path d="M46.7669463,33.0147673 C46.3022073,33.0147673 45.8641816,33.0916139 45.4572605,33.2453071 C41.2500916,34.8590859 40.5350522,44.7540018 43.7940803,56.2700151 C44.3451803,58.2167959 45.0086227,60.207489 45.7664766,62.1835447 C46.5239646,64.1596004 47.359763,66.084425 48.2515496,67.9031281 C53.5192017,78.6506754 60.6637408,85.5412547 64.8720075,83.9274759 C67.2004598,83.0345915 68.5569854,79.5362411 68.5943109,74.3253091 C68.634198,68.7484408 67.2019236,61.8798177 64.5613277,54.9855789 C61.9207318,48.0913402 58.3978636,42.0277768 54.6415282,37.9036754 C51.7462407,34.7236895 48.9603681,33.0147673 46.7669463,33.0147673 Z M63.5403656,85.998675 C61.2543619,85.998675 58.6628015,84.6849639 55.9270622,82.1197509 C52.6537625,79.0532052 49.3446011,74.2887154 46.6088618,68.7081878 C45.6929234,66.841913 44.8348029,64.8658573 44.0579203,62.8385706 C43.2803058,60.8112838 42.5996644,58.7657003 42.0335611,56.7676884 C40.341106,50.7882903 39.6216753,45.0357727 40.007738,40.5640319 C40.4278328,35.7007393 42.0858899,32.5793032 44.8026006,31.5363849 C47.9174498,30.3470921 51.8915173,32.1657952 55.9943944,36.6704703 C59.9003978,40.959243 63.5498799,47.2313901 66.269884,54.3305531 C68.9902539,61.4333754 70.4657088,68.5361978 70.4239921,74.3362872 C70.3804457,80.4291255 68.6411508,84.443446 65.5263015,85.6363981 C64.8954275,85.8779161 64.2319851,85.998675 63.5403656,85.998675 L63.5403656,85.998675 Z" id="Fill-126" fill="#000000"></path>
                        <path d="M59.6061851,56.8811287 C60.2304723,58.5132043 60.1353289,60.2367639 59.4777415,61.711487 C58.8197881,63.18621 57.5997567,64.4120964 55.9695108,65.034188 L52.6687659,66.3003274 C51.7725881,64.4743056 50.9269094,62.5311842 50.1507587,60.5038974 C49.3746079,58.48027 48.7067743,56.4676207 48.1523809,54.5098618 L51.4531257,53.2473818 C54.7099582,51.9995393 58.3598063,53.6316149 59.6061851,56.8811287" id="Fill-127" fill="#4284F3"></path>
                        <path d="M29.1452868,108.939218 C27.7613159,108.939218 26.4212574,108.280532 25.5821657,107.102218 L12.5189739,88.7578342 C12.2258589,88.3479857 12.3221002,87.7734658 12.7334125,87.4807168 C13.1450908,87.1879678 13.7159513,87.2867706 14.0094322,87.6966192 L27.0726239,106.041003 C27.7448488,106.985118 28.9711011,107.354714 30.0535405,106.941206 C31.009,106.57527 31.7481912,105.850716 32.134254,104.902941 C32.5203167,103.955166 32.4976287,102.919567 32.0698492,101.990089 L31.3262668,100.37631 C30.9310556,99.5163596 30.9767977,98.5136943 31.4484895,97.6976565 L31.5388757,97.5403039 C31.7178185,97.2292581 31.732456,96.8486844 31.577665,96.5230012 L30.5640216,94.4042304 C30.4004481,94.0639097 30.0784242,93.8333699 29.7022417,93.7931169 C28.7014061,93.6796766 27.8140108,93.0429476 27.3858654,92.1317663 L25.9909164,89.1676828 C25.7761119,88.7102625 25.9722537,88.1650175 26.429674,87.9491152 C26.8867283,87.7332128 27.4316074,87.9308184 27.6467779,88.3882386 L29.0413609,91.3523222 C29.201641,91.6926429 29.5331792,91.9305014 29.907166,91.9744138 C30.9142226,92.087854 31.7771002,92.6989675 32.2147599,93.6174675 L33.2280374,95.7362383 C33.6430091,96.6035072 33.6042198,97.6208099 33.1241115,98.4514852 L33.0337252,98.6088377 C32.8577099,98.9162242 32.8405109,99.2894791 32.9879832,99.611503 L33.7319316,101.225282 C34.3642694,102.601202 34.3993993,104.193025 33.8285388,105.594561 C33.2580442,106.992437 32.1207143,108.108542 30.7082005,108.650128 C30.1973535,108.844074 29.6682097,108.939218 29.1452868,108.939218" id="Fill-128" fill="#000000"></path>
                        <path d="M17.4441097,87.5392666 C17.2406491,87.5392666 17.0357248,87.4733981 16.8659304,87.3343423 C9.22335212,81.0878107 6.00567479,72.7005522 7.30255282,62.4067658 C7.36549385,61.9054332 7.82291414,61.5468157 8.32461272,61.6126842 C8.82557943,61.6748934 9.18090352,62.1323137 9.11796249,62.6336463 C7.88805079,72.3968251 10.8012692,80.0119582 18.0237527,85.918169 C18.4149385,86.2365336 18.4727564,86.8147128 18.1529282,87.2062646 C17.9721557,87.4258263 17.7094135,87.5392666 17.4441097,87.5392666" id="Fill-129" fill="#000000"></path>
                        <path d="M100.570551,33.9625421 C106.770609,31.1960642 111.09195,24.9751482 111.09195,17.7479075 C111.09195,7.9444757 103.14601,2.08010668e-13 93.3444083,2.08010668e-13 L80.1703378,2.08010668e-13 C70.3683698,2.08010668e-13 62.4227963,7.9444757 62.4227963,17.7479075 C62.4227963,22.1464611 64.0270608,26.1681003 66.6782688,29.2712396 L69.0096486,41.5227848 L78.2960124,35.3970122 L78.2945487,35.3933528 C78.9111513,35.4592214 79.5365363,35.495815 80.1703378,35.495815 L93.3444083,35.495815 C95.8078911,35.495815 98.2446605,34.9835042 100.500657,33.991817 L100.570551,33.9625421" id="Fill-130" fill="#000000"></path>
                        <path d="M77.426182,17.7113139 C77.426182,19.3946206 76.060508,20.7595627 74.3764694,20.7595627 C72.6920649,20.7595627 71.3271227,19.3946206 71.3271227,17.7113139 C71.3271227,16.0280072 72.6920649,14.663065 74.3764694,14.663065 C76.060508,14.663065 77.426182,16.0280072 77.426182,17.7113139" id="Fill-131" fill="#F3F6F5"></path>
                        <path d="M89.8069027,17.7113139 C89.8069027,19.3946206 88.4415946,20.7595627 86.757556,20.7595627 C85.0731516,20.7595627 83.7078435,19.3946206 83.7078435,17.7113139 C83.7078435,16.0280072 85.0731516,14.663065 86.757556,14.663065 C88.4415946,14.663065 89.8069027,16.0280072 89.8069027,17.7113139" id="Fill-132" fill="#F3F6F5"></path>
                        <path d="M102.187623,17.7113139 C102.187623,19.3946206 100.822315,20.7595627 99.1382767,20.7595627 C97.4538723,20.7595627 96.0889301,19.3946206 96.0889301,17.7113139 C96.0889301,16.0280072 97.4538723,14.663065 99.1382767,14.663065 C100.822315,14.663065 102.187623,16.0280072 102.187623,17.7113139" id="Fill-133" fill="#F3F6F5"></path>
                    </g>
                </g>
            </g>
        </g>
    </g>
</svg>