<svg width="113" height="110" xmlns="http://www.w3.org/2000/svg"><g fill="none" fill-rule="evenodd"><path d="M28.221 14.655a.919.919 0 01-.773-.42l-2.765-4.34a.914.914 0 01.28-1.263.91.91 0 011.263.278l2.766 4.34a.915.915 0 01-.771 1.405m20.251 2.287a.928.928 0 01-.354-.07.917.917 0 01-.489-1.2l1.993-4.742a.918.918 0 011.198-.49.917.917 0 01.489 1.2l-1.993 4.742a.913.913 0 01-.844.56m-25.23 16.332h-.022l-5.144-.125a.914.914 0 01.021-1.83h.023l5.144.125a.915.915 0 01-.022 1.83" fill="#000"/><path d="M28.386 44.179c-7.834 10.56-12.018 16.178-24.297 20.88-1.96.75-3.204 2.675-3.125 4.772.25 6.576 2.478 12.394 6.686 17.451 1.342 1.614 3.552 2.214 5.512 1.46 12.279-4.702 19.146-3.319 32.03-.695a29.131 29.131 0 0016.256-1.343l4.711-1.804L46.09 32.513l-4.711 1.804a29.153 29.153 0 00-12.993 9.862" fill="#4284F3"/><path d="M13.932 67.46a.913.913 0 01-.843-.56.91.91 0 01.485-1.197c3.868-1.643 7.036-3.663 10.27-6.554a.915.915 0 011.219 1.365c-3.39 3.03-6.714 5.149-10.775 6.872a.946.946 0 01-.356.074m17.622-14.027a.922.922 0 01-.61-.23.915.915 0 01-.07-1.292c.713-.798 1.451-1.628 2.22-2.496a30.335 30.335 0 013.212-3.117.916.916 0 011.172 1.405 28.168 28.168 0 00-3.016 2.927c-.771.867-1.51 1.702-2.226 2.5a.914.914 0 01-.682.303" fill="#000"/><path d="M66.376 54.776c5.543 14.47 5.446 27.958-.216 30.124-4.87 1.866-12.266-5.247-17.77-16.474a70.688 70.688 0 01-2.517-5.793 70.521 70.521 0 01-1.998-5.994C40.47 44.61 41.22 34.379 46.09 32.513c5.663-2.17 14.745 7.798 20.286 22.263" fill="#FFF"/><path d="M47.728 33.135c-.465 0-.903.077-1.31.23-4.207 1.614-4.922 11.509-1.663 23.025a69.344 69.344 0 001.972 5.914 69.766 69.766 0 002.485 5.72C54.48 78.77 61.624 85.66 65.832 84.047c2.33-.893 3.686-4.392 3.723-9.603.04-5.577-1.392-12.445-4.033-19.34-2.64-6.894-6.164-12.957-9.92-17.081-2.895-3.18-5.681-4.89-7.874-4.89zM64.5 86.119c-2.286 0-4.878-1.314-7.613-3.88-3.274-3.066-6.583-7.83-9.319-13.41a71.246 71.246 0 01-2.55-5.87 71.354 71.354 0 01-2.025-6.071c-1.692-5.98-2.412-11.732-2.026-16.204.42-4.863 2.079-7.985 4.795-9.028 3.115-1.189 7.09.63 11.192 5.134 3.906 4.29 7.556 10.561 10.276 17.66 2.72 7.103 4.195 14.206 4.154 20.006-.044 6.093-1.783 10.107-4.898 11.3a5.513 5.513 0 01-1.986.363z" fill="#000"/><path d="M60.567 57.001a6.293 6.293 0 01-.129 4.83 6.284 6.284 0 01-3.508 3.323l-3.3 1.266a69.983 69.983 0 01-2.519-5.796 70.226 70.226 0 01-1.998-5.994l3.3-1.263a6.315 6.315 0 018.154 3.634" fill="#4284F3"/><path d="M30.106 109.06a4.373 4.373 0 01-3.563-1.838L13.48 88.878a.917.917 0 01.214-1.277.917.917 0 011.276.216l13.063 18.344a2.545 2.545 0 002.981.9 3.626 3.626 0 002.08-2.038 3.629 3.629 0 00-.064-2.913l-.743-1.614a2.924 2.924 0 01.122-2.678l.09-.158c.18-.31.194-.691.04-1.017l-1.014-2.119a1.08 1.08 0 00-.862-.61 2.947 2.947 0 01-2.317-1.662l-1.394-2.964a.914.914 0 111.656-.78l1.394 2.964c.16.34.492.579.866.622a2.898 2.898 0 012.307 1.643l1.014 2.12a2.915 2.915 0 01-.104 2.715l-.09.157c-.177.307-.194.68-.046 1.003l.744 1.613a5.516 5.516 0 01.096 4.37 5.52 5.52 0 01-3.12 3.055 4.4 4.4 0 01-1.563.29" fill="#000"/><path d="M18.405 87.66a.908.908 0 01-.578-.206c-7.643-6.246-10.86-14.633-9.564-24.927a.914.914 0 111.815.227c-1.23 9.763 1.684 17.378 8.906 23.284a.916.916 0 01.13 1.288.915.915 0 01-.71.333m83.127-53.576c6.2-2.767 10.522-8.988 10.522-16.215 0-9.803-7.946-17.748-17.748-17.748H81.131c-9.802 0-17.748 7.945-17.748 17.748a17.68 17.68 0 004.256 11.523l2.331 12.252 9.287-6.126-.002-.004c.617.066 1.242.103 1.876.103h13.174c2.464 0 4.9-.512 7.156-1.504l.07-.03" fill="#000"/><path d="M78.387 17.831a3.05 3.05 0 11-6.099-.002 3.05 3.05 0 016.099.002m12.381 0a3.049 3.049 0 11-6.098-.001 3.049 3.049 0 016.098.001m12.38 0a3.049 3.049 0 11-6.098-.001 3.049 3.049 0 016.098.001" fill="#F3F6F5"/></g></svg>