<svg width="43" height="40" fill="none" xmlns="http://www.w3.org/2000/svg"><path fill-rule="evenodd" clip-rule="evenodd" d="M37.953 37.75h-3.427a.45.45 0 010-.902h3.426a.45.45 0 010 .901z" fill="#192331"/><path fill-rule="evenodd" clip-rule="evenodd" d="M36.239 39.461a.45.45 0 01-.45-.45v-3.426a.45.45 0 01.9 0v3.426a.45.45 0 01-.45.45z" fill="#192331"/><path fill-rule="evenodd" clip-rule="evenodd" d="M12.155.901a1.565 1.565 0 000 3.129 1.566 1.566 0 000-3.129zm0 4.03a2.469 2.469 0 01-2.466-2.466A2.467 2.467 0 0112.155 0a2.467 2.467 0 012.465 2.465 2.469 2.469 0 01-2.465 2.466z" fill="#33A853"/><path fill-rule="evenodd" clip-rule="evenodd" d="M31.466 4.417a.448.448 0 01-.432-.33l-.38-1.371a.448.448 0 01.313-.553.448.448 0 01.553.313l.38 1.37a.451.451 0 01-.434.571zm2.662.276a.452.452 0 01-.41-.64l.6-1.29a.451.451 0 01.818.378l-.599 1.29a.452.452 0 01-.409.262zM34.721 8h5.76c.656 0 1.19.524 1.19 1.171V31.33c0 .647-.534 1.173-1.19 1.173H1.64A1.182 1.182 0 01.451 31.33V9.17A1.18 1.18 0 011.639 8h33.082z" fill="#192331"/><path fill-rule="evenodd" clip-rule="evenodd" d="M40.481 32.953H1.639A1.633 1.633 0 010 31.33V9.17c0-.892.735-1.62 1.64-1.62h28.727a.45.45 0 010 .902H1.639a.73.73 0 00-.738.72V31.33c0 .398.331.722.738.722h38.842a.732.732 0 00.739-.722V9.17a.73.73 0 00-.739-.72h-5.76a.45.45 0 010-.902h5.76c.905 0 1.64.729 1.64 1.622v22.16c0 .894-.735 1.623-1.64 1.623z" fill="#192331"/><path fill-rule="evenodd" clip-rule="evenodd" d="M34.721 7.661h5.76c.656 0 1.19.534 1.19 1.19v17.835a1.19 1.19 0 01-1.19 1.187H1.64a1.188 1.188 0 01-1.188-1.188V8.852c0-.656.532-1.19 1.188-1.19h33.082z" fill="#F3F6F5"/><path fill-rule="evenodd" clip-rule="evenodd" d="M40.481 28.324H1.639A1.64 1.64 0 010 26.685V8.852c0-.903.735-1.64 1.64-1.64h28.727a.45.45 0 010 .9H1.639a.74.74 0 00-.738.74v17.834c0 .408.331.738.738.738h38.842c.407 0 .739-.33.739-.737V8.85a.74.74 0 00-.739-.74h-5.76a.45.45 0 110-.9h5.76c.905 0 1.64.737 1.64 1.64v17.834c0 .903-.735 1.639-1.64 1.639zM17.174 38.23h7.773v-7.774h-7.773v7.774z" fill="#192331"/><path fill-rule="evenodd" clip-rule="evenodd" d="M17.624 37.78h6.873v-6.874h-6.873v6.874zm7.323.901h-7.773a.45.45 0 01-.45-.45v-7.775a.45.45 0 01.45-.45h7.773a.45.45 0 01.45.45v7.774a.45.45 0 01-.45.451z" fill="#192331"/><path fill-rule="evenodd" clip-rule="evenodd" d="M26.345 39.162h-10.57a.83.83 0 01-.829-.83v-.204a.83.83 0 01.83-.83h10.569a.83.83 0 01.83.83v.203a.83.83 0 01-.83.831z" fill="#192331"/><path fill-rule="evenodd" clip-rule="evenodd" d="M15.776 37.75a.379.379 0 00-.38.378v.203c0 .21.17.38.38.38h10.569a.38.38 0 00.38-.38v-.203a.38.38 0 00-.38-.379h-10.57zm10.569 1.863h-10.57c-.705 0-1.28-.575-1.28-1.282v-.203c0-.707.575-1.28 1.28-1.28h10.57c.706 0 1.28.573 1.28 1.28v.203c0 .707-.574 1.282-1.28 1.282z" fill="#192331"/><rect x="3.669" y="10.583" width="34.603" height="9.191" rx=".901" fill="#33A853"/><circle cx="8.625" cy="23.288" r="1.892" fill="#192331"/><path d="M12.5 22.297h19.103M12.5 24.1h3.604" stroke="#192331" stroke-width=".721" stroke-linecap="round"/></svg>