<svg width="89" height="80" fill="none" xmlns="http://www.w3.org/2000/svg"><path fill-rule="evenodd" clip-rule="evenodd" d="M11.919 5.504a.71.71 0 01-.666-.469L9.83 1.075a.708.708 0 011.33-.48l1.425 3.961a.707.707 0 01-.665.948zm8.474.487a.707.707 0 01-.532-1.173l2.49-2.858a.71.71 0 011.067.93l-2.49 2.859a.71.71 0 01-.535.242zm52.415 7.342H84.77c1.363 0 2.467 1.09 2.467 2.435v46.017c0 1.344-1.104 2.435-2.467 2.435H4.101c-1.362 0-2.466-1.09-2.466-2.435V15.767c0-1.345 1.104-2.435 2.467-2.435h68.706z" fill="#000"/><path fill-rule="evenodd" clip-rule="evenodd" d="M84.771 64.923H4.101c-1.747 0-3.171-1.408-3.171-3.138V15.768c0-1.73 1.424-3.138 3.172-3.138h59.662a.703.703 0 010 1.406H4.102c-.972 0-1.765.777-1.765 1.732v46.017c0 .955.793 1.732 1.765 1.732h80.67c.97 0 1.764-.777 1.764-1.732V15.768c0-.955-.793-1.732-1.765-1.732H72.808a.705.705 0 01-.706-.703c0-.388.317-.703.706-.703H84.77c1.748 0 3.172 1.407 3.172 3.138v46.017c0 1.73-1.424 3.138-3.172 3.138z" fill="#242B42"/><path fill-rule="evenodd" clip-rule="evenodd" d="M72.808 12.585H84.77a2.468 2.468 0 012.467 2.468v37.039a2.468 2.468 0 01-2.467 2.469H4.101a2.468 2.468 0 01-2.466-2.47V15.054a2.468 2.468 0 012.467-2.469h70.782-2.076z" fill="#fff"/><path fill-rule="evenodd" clip-rule="evenodd" d="M74.884 13.34H19.209a.708.708 0 010-1.416h55.675a.708.708 0 010 1.416z" fill="#000"/><path fill-rule="evenodd" clip-rule="evenodd" d="M84.771 55.316H4.101a3.18 3.18 0 01-3.174-3.177V15.101a3.18 3.18 0 013.175-3.177h7.149a.708.708 0 010 1.416H4.1a1.76 1.76 0 00-1.758 1.76v37.04c0 .97.787 1.76 1.759 1.76h80.67a1.76 1.76 0 001.758-1.76V15.1c0-.97-.787-1.76-1.759-1.76H72.808a.708.708 0 010-1.416H84.77a3.18 3.18 0 013.175 3.177v37.038a3.18 3.18 0 01-3.175 3.177zM36.364 76.115H52.51V59.971H36.364v16.145z" fill="#000"/><path fill-rule="evenodd" clip-rule="evenodd" d="M37.072 75.407H51.8V60.68H37.072v14.727zm15.436 1.417H36.364a.708.708 0 01-.708-.708V59.97a.71.71 0 01.708-.708h16.144a.71.71 0 01.709.709v16.144a.708.708 0 01-.709.708z" fill="#000"/><path fill-rule="evenodd" clip-rule="evenodd" d="M55.412 78.05h-21.95a1.722 1.722 0 01-1.723-1.722v-.425c0-.952.77-1.723 1.722-1.723h21.95c.952 0 1.723.771 1.723 1.723v.425c0 .951-.77 1.723-1.722 1.723z" fill="#000"/><path fill-rule="evenodd" clip-rule="evenodd" d="M33.461 75.068a.837.837 0 00-.835.835v.425c0 .46.376.835.835.835h21.95a.835.835 0 00.836-.835v-.425a.835.835 0 00-.836-.835h-21.95zm21.95 3.87h-21.95a2.615 2.615 0 01-2.611-2.61v-.425a2.615 2.615 0 012.611-2.611h21.95a2.615 2.615 0 012.612 2.611v.425c0 1.44-1.173 2.61-2.612 2.61z" fill="#000"/><path fill-rule="evenodd" clip-rule="evenodd" d="M9.415 47.683h14.062v-8.907H9.415v8.907zm27.989 0h14.065V33.024H37.404v14.66zm27.991 0h14.063V26.51H65.395v21.173z" fill="#EA4435"/><path fill-rule="evenodd" clip-rule="evenodd" d="M35.09 41.481h-9.064a.708.708 0 010-1.416h9.064a.708.708 0 010 1.416zm27.873 0h-9.064a.708.708 0 010-1.416h9.064a.708.708 0 010 1.416z" fill="#000"/><path fill-rule="evenodd" clip-rule="evenodd" d="M50.608 74.14h-12.06a.708.708 0 010-1.416h12.06a.708.708 0 010 1.416z" fill="#F5F8FA"/><path fill-rule="evenodd" clip-rule="evenodd" d="M16.445 33.072a.705.705 0 01-.691-.564.705.705 0 01.546-.838l58.063-12.085a.707.707 0 01.835.55.705.705 0 01-.547.837L16.59 33.057a.716.716 0 01-.144.015z" fill="#000"/><path fill-rule="evenodd" clip-rule="evenodd" d="M19.21 32.363a2.764 2.764 0 11-5.53 0 2.764 2.764 0 015.53 0z" fill="#fff"/><path fill-rule="evenodd" clip-rule="evenodd" d="M16.445 30.307a2.06 2.06 0 00-2.056 2.056 2.057 2.057 0 102.056-2.056zm0 5.529a3.476 3.476 0 01-3.473-3.473 3.476 3.476 0 013.473-3.472 3.476 3.476 0 013.472 3.472 3.476 3.476 0 01-3.472 3.473z" fill="#000"/><path fill-rule="evenodd" clip-rule="evenodd" d="M47.2 26.427a2.764 2.764 0 11-5.528 0 2.764 2.764 0 015.529 0z" fill="#fff"/><path fill-rule="evenodd" clip-rule="evenodd" d="M44.437 24.371a2.06 2.06 0 00-2.057 2.056 2.06 2.06 0 002.056 2.056 2.059 2.059 0 002.057-2.056 2.06 2.06 0 00-2.056-2.056zm0 5.529a3.476 3.476 0 01-3.473-3.473 3.476 3.476 0 013.473-3.472 3.476 3.476 0 013.472 3.473 3.476 3.476 0 01-3.472 3.472z" fill="#000"/><path fill-rule="evenodd" clip-rule="evenodd" d="M77.271 20.279a2.764 2.764 0 11-5.528 0 2.764 2.764 0 015.528 0z" fill="#fff"/><path fill-rule="evenodd" clip-rule="evenodd" d="M74.507 18.223a2.057 2.057 0 000 4.112 2.06 2.06 0 002.056-2.056 2.06 2.06 0 00-2.056-2.056zm0 5.528a3.476 3.476 0 01-3.472-3.472 3.476 3.476 0 013.472-3.473 3.476 3.476 0 013.472 3.473 3.476 3.476 0 01-3.472 3.472z" fill="#000"/></svg>