<svg width="84" height="94" fill="none" xmlns="http://www.w3.org/2000/svg"><path fill-rule="evenodd" clip-rule="evenodd" d="M64.83 33.256v55.43a2.596 2.596 0 01-2.595 2.596H4.154a2.596 2.596 0 01-2.596-2.595V19.574a2.596 2.596 0 012.596-2.596h58.08a2.596 2.596 0 012.596 2.596v13.682z" fill="#EA4435"/><path fill-rule="evenodd" clip-rule="evenodd" d="M62.235 92.121H4.154a3.439 3.439 0 01-3.435-3.435V19.574a3.438 3.438 0 013.435-3.435h58.08a3.439 3.439 0 013.435 3.435v6.002a.839.839 0 11-1.678 0v-6.002c0-.97-.788-1.757-1.756-1.757H4.154c-.969 0-1.757.788-1.757 1.757v69.112c0 .969.788 1.757 1.757 1.757h58.08c.97 0 1.757-.788 1.757-1.757v-55.43a.839.839 0 111.678 0v55.43a3.439 3.439 0 01-3.434 3.435z" fill="#000"/><path fill-rule="evenodd" clip-rule="evenodd" d="M47.666 80.737H9.15v-58.73h48.087v49.158l-9.572 9.572z" fill="#fff"/><path fill-rule="evenodd" clip-rule="evenodd" d="M47.666 81.576H9.15a.839.839 0 01-.839-.84V22.008c0-.463.376-.838.839-.838h48.087c.463 0 .839.375.839.838v49.158a.839.839 0 11-1.678 0v-48.32H9.989v57.052h37.677a.839.839 0 110 1.678z" fill="#000"/><path fill-rule="evenodd" clip-rule="evenodd" d="M45.97 25.577H20.419a2.96 2.96 0 01-2.96-2.961v-7.057a2.961 2.961 0 012.96-2.961h25.553a2.961 2.961 0 012.96 2.96v7.058a2.96 2.96 0 01-2.96 2.96z" fill="#000"/><path fill-rule="evenodd" clip-rule="evenodd" d="M20.418 13.41c-1.185 0-2.15.963-2.15 2.149v7.057c0 1.185.965 2.15 2.15 2.15h25.553c1.185 0 2.15-.965 2.15-2.15v-7.057c0-1.186-.965-2.15-2.15-2.15H20.418zm25.553 12.978H20.418a3.776 3.776 0 01-3.772-3.772v-7.057a3.776 3.776 0 013.772-3.772h25.553a3.776 3.776 0 013.771 3.772v7.057a3.776 3.776 0 01-3.771 3.772z" fill="#000"/><path fill-rule="evenodd" clip-rule="evenodd" d="M42.117 13.436a.839.839 0 01-.839-.838v-4.26a1.39 1.39 0 00-1.39-1.39H26.501a1.39 1.39 0 00-1.39 1.39v4.26a.839.839 0 11-1.678 0v-4.26A3.072 3.072 0 0126.5 5.269h13.387a3.072 3.072 0 013.068 3.069v4.26a.839.839 0 01-.839.838z" fill="#000"/><path fill-rule="evenodd" clip-rule="evenodd" d="M26.413 38.556a4.867 4.867 0 11-9.735 0 4.867 4.867 0 019.735 0zm0 13.627a4.867 4.867 0 11-9.735 0 4.867 4.867 0 019.735 0zm0 13.628a4.867 4.867 0 11-9.735 0 4.867 4.867 0 019.735 0z" fill="#EA4435"/><path fill-rule="evenodd" clip-rule="evenodd" d="M21.546 41.017a.838.838 0 01-.593-.246l-2.596-2.596a.838.838 0 111.186-1.186l1.96 1.96 3.33-3.829a.84.84 0 011.265 1.101l-3.92 4.508a.84.84 0 01-.603.287l-.03.001z" fill="#F5F8FA"/><path fill-rule="evenodd" clip-rule="evenodd" d="M25.465 36.51a.839.839 0 01-.633-1.39l2.57-2.956a.84.84 0 011.266 1.101l-2.57 2.956a.837.837 0 01-.633.288z" fill="#000"/><path fill-rule="evenodd" clip-rule="evenodd" d="M21.546 54.97a.838.838 0 01-.593-.247l-2.596-2.595a.838.838 0 111.186-1.187l1.96 1.96 3.33-3.829a.84.84 0 011.265 1.102l-3.92 4.507a.839.839 0 01-.632.288z" fill="#F5F8FA"/><path fill-rule="evenodd" clip-rule="evenodd" d="M25.465 50.462a.84.84 0 01-.633-1.39l2.57-2.955a.84.84 0 011.266 1.1l-2.57 2.957a.838.838 0 01-.633.288z" fill="#000"/><path fill-rule="evenodd" clip-rule="evenodd" d="M21.546 68.921a.839.839 0 01-.593-.245l-2.596-2.596a.838.838 0 111.186-1.186l1.96 1.96 3.33-3.83a.84.84 0 011.265 1.102l-3.92 4.507a.84.84 0 01-.603.288h-.03z" fill="#F5F8FA"/><path fill-rule="evenodd" clip-rule="evenodd" d="M25.465 64.414a.839.839 0 01-.633-1.39l2.57-2.955a.84.84 0 011.266 1.101l-2.57 2.956a.837.837 0 01-.633.288zM50.91 36.636H33.066a.839.839 0 110-1.678H50.91a.839.839 0 110 1.678zm0 4.543h-3.893a.839.839 0 110-1.678h3.893a.839.839 0 110 1.678zm-10.87 0h-6.975a.839.839 0 110-1.678h6.976a.839.839 0 110 1.678zm10.87 9.41H33.066a.839.839 0 110-1.678H50.91a.839.839 0 110 1.678zm-3.893 4.542H33.064a.839.839 0 110-1.678h13.953a.839.839 0 110 1.678zm3.893 9.41H33.066a.839.839 0 110-1.678H50.91a.839.839 0 110 1.678z" fill="#000"/><path fill-rule="evenodd" clip-rule="evenodd" d="M42.275 69.084h-5.641a.84.84 0 010-1.678h5.641a.839.839 0 010 1.678z" fill="#242B42"/><path fill-rule="evenodd" clip-rule="evenodd" d="M40.04 69.084h-2.758a.84.84 0 010-1.678h2.759a.839.839 0 110 1.678z" fill="#000"/><path fill-rule="evenodd" clip-rule="evenodd" d="M47.666 80.737v-9.572h9.572l-9.572 9.572z" fill="#fff"/><path fill-rule="evenodd" clip-rule="evenodd" d="M48.505 72.004v6.707l6.707-6.707h-6.707zm-.84 9.572a.84.84 0 01-.838-.84v-9.571c0-.464.375-.84.839-.84h9.572a.838.838 0 01.593 1.433l-9.572 9.572a.839.839 0 01-.593.246zm27.78-75.243a.84.84 0 01-.611-1.413l3.123-3.326a.839.839 0 111.223 1.148L76.057 6.07a.837.837 0 01-.612.264zm6.981 18.577a.833.833 0 01-.126-.009l-4.512-.674a.839.839 0 01.248-1.66l4.513.675a.84.84 0 01-.123 1.669zM58.357 6.13a.839.839 0 01-.817-.65l-1.02-4.448a.839.839 0 011.636-.375l1.02 4.447a.84.84 0 01-.82 1.027z" fill="#000"/></svg>