<svg width="40" height="40" fill="none" xmlns="http://www.w3.org/2000/svg"><path fill-rule="evenodd" clip-rule="evenodd" d="M36.439 37.908h-3.064a.45.45 0 110-.901h3.064a.45.45 0 010 .901z" fill="#192331"/><path fill-rule="evenodd" clip-rule="evenodd" d="M34.907 39.44a.45.45 0 01-.45-.45v-3.065a.45.45 0 11.9 0v3.064a.45.45 0 01-.45.45z" fill="#192331"/><path fill-rule="evenodd" clip-rule="evenodd" d="M4.334 2.253a1.353 1.353 0 000 2.703 1.353 1.353 0 000-2.703zm0 3.604a2.256 2.256 0 01-2.252-2.253 2.256 2.256 0 012.252-2.252 2.256 2.256 0 012.253 2.252 2.256 2.256 0 01-2.253 2.253z" fill="#4284F3"/><path fill-rule="evenodd" clip-rule="evenodd" d="M20.718 32.147a2.858 2.858 0 01-.183-.143l.183.143z" fill="#F3F6F5"/><path fill-rule="evenodd" clip-rule="evenodd" d="M20.718 32.597a.453.453 0 01-.261-.083 3.155 3.155 0 01-.215-.167.45.45 0 11.584-.686c.05.041.1.08.152.118a.45.45 0 01-.26.818z" fill="#192331"/><path fill-rule="evenodd" clip-rule="evenodd" d="M8.705 39.041H.45V20.933h7.527v.986c0 .36-.15.7-.398.962a2.644 2.644 0 00-.72 1.914 2.661 2.661 0 002.475 2.545 2.647 2.647 0 002.073-4.479 1.384 1.384 0 01-.377-.964v-.964h7.528v6.426c0 .608.494 1.102 1.101 1.102h.017a.885.885 0 00.643-.285 2.642 2.642 0 012.026-.835 2.66 2.66 0 012.543 2.477 2.645 2.645 0 01-4.17 2.329L8.704 39.04z" fill="#F3F6F5"/><path fill-rule="evenodd" clip-rule="evenodd" d="M8.705 39.492H.45a.45.45 0 01-.451-.45v-18.11a.45.45 0 01.45-.45h7.528a.45.45 0 01.451.45v.987c0 .467-.186.919-.523 1.273a2.185 2.185 0 00-.596 1.588 2.211 2.211 0 002.053 2.11 2.18 2.18 0 001.645-.59c.445-.42.692-.99.692-1.602 0-.572-.218-1.113-.616-1.524a1.826 1.826 0 01-.503-1.277v-.964a.45.45 0 01.45-.45h7.528a.45.45 0 01.45.45v6.426c0 .36.293.651.651.651.134 0 .245-.05.332-.143a3.117 3.117 0 012.368-.976c1.573.057 2.882 1.33 2.977 2.899a3.071 3.071 0 01-.832 2.318 3.109 3.109 0 01-2.257.975 3.081 3.081 0 01-1.791-.569.451.451 0 01.52-.735 2.19 2.19 0 001.271.403c.613 0 1.18-.246 1.6-.692.419-.446.63-1.03.59-1.644a2.21 2.21 0 00-2.108-2.054 2.216 2.216 0 00-1.68.692 1.345 1.345 0 01-.973.427 1.557 1.557 0 01-1.568-1.552v-5.976h-6.627v.514c0 .253.088.484.25.651.56.58.87 1.344.87 2.15 0 .851-.358 1.674-.978 2.258a3.069 3.069 0 01-2.317.833c-1.568-.096-2.84-1.405-2.898-2.978a3.087 3.087 0 01.843-2.24.949.949 0 00.276-.652v-.536H.9v17.208h7.804a.45.45 0 010 .901z" fill="#192331"/><path fill-rule="evenodd" clip-rule="evenodd" d="M39.429 10.27v8.29H31.9v-.987c0-.36.15-.7.398-.962a2.639 2.639 0 00.72-1.913 2.658 2.658 0 00-2.477-2.545 2.646 2.646 0 00-2.07 4.48c.248.256.376.606.376.963v.964H21.32v-6.426c0-.609-.494-1.102-1.103-1.102h-.016a.88.88 0 00-.642.285 2.637 2.637 0 01-2.025.833 2.66 2.66 0 01-2.543-2.476 2.646 2.646 0 014.565-1.983c.17.18.4.288.647.288h.014c.61 0 1.103-.494 1.103-1.103V.451h9.386l8.723 9.819z" fill="#F3F6F5"/><path fill-rule="evenodd" clip-rule="evenodd" d="M39.429 19.01H31.9a.45.45 0 01-.45-.45v-.987c0-.465.185-.917.52-1.272.408-.43.619-.993.599-1.587a2.211 2.211 0 00-2.055-2.11 2.18 2.18 0 00-1.643.59 2.17 2.17 0 00-.693 1.6c0 .573.219 1.114.617 1.525.324.335.503.789.503 1.277v.964a.45.45 0 01-.45.45H21.32a.45.45 0 01-.45-.45v-6.426a.652.652 0 00-.653-.652.44.44 0 00-.33.143 3.093 3.093 0 01-2.37.976 3.12 3.12 0 01-2.977-2.899 3.073 3.073 0 01.835-2.318 3.11 3.11 0 012.256-.975c.849 0 1.67.354 2.253.973a.44.44 0 00.319.146.656.656 0 00.667-.652V.451A.45.45 0 0121.32 0h9.386a.45.45 0 010 .901h-8.935v5.975c0 .857-.698 1.553-1.554 1.553a1.36 1.36 0 01-.99-.43 2.173 2.173 0 00-1.596-.69 2.17 2.17 0 00-1.599.692 2.18 2.18 0 00-.592 1.646 2.211 2.211 0 002.11 2.053 2.193 2.193 0 001.681-.691c.254-.272.608-.428.97-.428.872 0 1.57.697 1.57 1.553v5.975h6.627v-.513a.94.94 0 00-.251-.65 3.078 3.078 0 01-.869-2.152c0-.85.355-1.673.975-2.256a3.072 3.072 0 012.318-.834c1.57.097 2.842 1.405 2.898 2.978a3.067 3.067 0 01-.843 2.239.954.954 0 00-.274.652v.536h6.626v-7.84a.45.45 0 01.901 0v8.29a.45.45 0 01-.45.451z" fill="#192331"/><path fill-rule="evenodd" clip-rule="evenodd" d="M7.19 17.916a.45.45 0 01-.437-.348l-1.667-7.137a.45.45 0 01.337-.541l6.23-1.455a.45.45 0 11.204.878l-5.79 1.352 1.564 6.698a.452.452 0 01-.44.553zm21.492 14.539a.45.45 0 01-.103-.889l5.784-1.381-1.597-6.69a.45.45 0 01.878-.21l1.701 7.129a.454.454 0 01-.333.543l-6.223 1.485a.454.454 0 01-.107.013zm-10.122.252v6.334h-7.361a6.038 6.038 0 017.36-6.335z" fill="#4284F3"/><path fill-rule="evenodd" clip-rule="evenodd" d="M11.633 38.59h6.476v-5.512a5.593 5.593 0 00-6.475 5.512zm7.377.902h-8.231l-.029-.418a6.495 6.495 0 017.908-6.807l.352.08v7.145z" fill="#4284F3"/><path fill-rule="evenodd" clip-rule="evenodd" d="M33.05.45h6.336v7.36A6.038 6.038 0 0133.05.45z" fill="#192331"/><path fill-rule="evenodd" clip-rule="evenodd" d="M33.424.901a5.594 5.594 0 005.511 6.475V.901h-5.511zm5.515 7.377A6.495 6.495 0 0132.61.35a.451.451 0 01.44-.351h6.335a.45.45 0 01.45.45v7.36a.45.45 0 01-.418.45 6.48 6.48 0 01-.48.018z" fill="#192331"/></svg>