<svg width="104" height="97" fill="none" xmlns="http://www.w3.org/2000/svg"><path fill-rule="evenodd" clip-rule="evenodd" d="M98.099 62.31c0 18.658-15.125 33.783-33.782 33.783-18.658 0-33.783-15.125-33.783-33.782 0-18.658 15.125-33.783 33.783-33.783 18.657 0 33.782 15.125 33.782 33.783z" fill="#33A853"/><path fill-rule="evenodd" clip-rule="evenodd" d="M64.018 63.115H31.1a.805.805 0 010-1.609h32.917a.805.805 0 110 1.61z" fill="#000"/><path fill-rule="evenodd" clip-rule="evenodd" d="M64.607 95.007zm-.004 1.61c-.799 0-.866-.787-.92-1.419a49.398 49.398 0 01-.111-1.99c-.07-1.695-.133-4.12-.187-7.204-.11-6.34-.172-14.754-.172-23.693a.805.805 0 011.61 0c0 18.819.26 31.688.505 33.153a.805.805 0 01-.725 1.153z" fill="#192331"/><path fill-rule="evenodd" clip-rule="evenodd" d="M64.098 80.013H35.682a.805.805 0 010-1.61h28.416a.805.805 0 110 1.61z" fill="#000"/><path fill-rule="evenodd" clip-rule="evenodd" d="M64.603 96.617c-4.958 0-9.582-3.642-13.02-10.256-3.35-6.447-5.196-14.989-5.196-24.05a.805.805 0 111.61 0c0 8.808 1.78 17.086 5.014 23.308 3.147 6.054 7.264 9.388 11.592 9.388a.805.805 0 110 1.61z" fill="#000"/><path fill-rule="evenodd" clip-rule="evenodd" d="M64.607 95.007zm-.004 1.61c-.799 0-.866-.787-.92-1.419a49.398 49.398 0 01-.111-1.99c-.07-1.695-.133-4.12-.187-7.204-.11-6.34-.172-14.754-.172-23.693 0-.445.36-.805.805-.805H98.1a.805.805 0 110 1.61H64.823c.007 18.38.263 30.904.505 32.348a.805.805 0 01-.725 1.153z" fill="#000"/><path fill-rule="evenodd" clip-rule="evenodd" d="M93.52 80.013H64.097a.805.805 0 010-1.61H93.52a.805.805 0 110 1.61zM64.724 29.61zm-.706 33.506a.805.805 0 01-.805-.805c0-8.937.062-17.35.172-23.689.054-3.085.117-5.509.187-7.204.035-.868.073-1.538.112-1.99.053-.632.12-1.418.919-1.418a.805.805 0 01.725 1.153c-.246 1.465-.505 14.332-.505 33.148 0 .444-.36.805-.805.805z" fill="#000"/><path fill-rule="evenodd" clip-rule="evenodd" d="M64.098 46.222H35.682a.805.805 0 010-1.61h28.416a.805.805 0 110 1.61z" fill="#000"/><path fill-rule="evenodd" clip-rule="evenodd" d="M47.192 63.116a.805.805 0 01-.805-.805c0-9.06 1.846-17.6 5.197-24.046 3.437-6.613 8.06-10.255 13.019-10.255a.804.804 0 110 1.61c-4.328 0-8.445 3.333-11.592 9.387-3.233 6.221-5.014 14.498-5.014 23.304 0 .444-.36.805-.805.805zM93.52 46.222H64.097a.805.805 0 110-1.61H93.52a.805.805 0 110 1.61zM64.603 96.617a.805.805 0 010-1.61c4.328 0 8.445-3.334 11.591-9.388 3.234-6.222 5.015-14.5 5.015-23.308a.805.805 0 111.61 0c0 9.062-1.846 17.603-5.197 24.05-3.437 6.614-8.061 10.256-13.02 10.256z" fill="#000"/><path fill-rule="evenodd" clip-rule="evenodd" d="M82.014 63.116a.805.805 0 01-.805-.805c0-8.806-1.781-17.083-5.015-23.304-3.147-6.054-7.263-9.388-11.591-9.388a.805.805 0 110-1.61c4.958 0 9.581 3.643 13.02 10.256 3.35 6.446 5.196 14.986 5.196 24.046 0 .444-.36.805-.805.805zm10.44-43.078a.803.803 0 01-.672-1.246l2.363-3.612a.804.804 0 111.347.882l-2.364 3.611a.804.804 0 01-.674.365zm5.238 16.271a.805.805 0 01-.02-1.61l4.314-.112a.805.805 0 11.042 1.609l-4.314.113h-.022zM76.505 22.655a.805.805 0 01-.742-.492l-1.68-3.975a.805.805 0 111.483-.627l1.68 3.976a.805.805 0 01-.741 1.118zm-32.85 2.191c-12.127 6.44-22.355-6.43-34.464 0V4.347c12.108-6.429 22.337 6.44 34.464 0v20.5z" fill="#000"/><path fill-rule="evenodd" clip-rule="evenodd" d="M36.186 12.842c-3.44 0-6.755-.954-9.999-1.888-2.722-.784-5.536-1.594-8.32-1.783a.805.805 0 01.11-1.606c2.954.2 5.853 1.035 8.656 1.842 4.977 1.434 9.678 2.787 14.732.92a.804.804 0 11.557 1.51c-1.955.722-3.864 1.005-5.736 1.005zm1.335 10.028a.805.805 0 01-.063-1.606 14.397 14.397 0 003.907-.856.804.804 0 11.557 1.51 15.997 15.997 0 01-4.4.953zm-9.081-6.444a.8.8 0 01-.213-.03c-.681-.186-1.36-.382-2.04-.578-2.722-.783-5.536-1.594-8.32-1.783a.805.805 0 11.11-1.605c2.954.2 5.852 1.035 8.655 1.842.673.194 1.347.388 2.022.573a.805.805 0 01-.213 1.58z" fill="#F3F6F5"/><path fill-rule="evenodd" clip-rule="evenodd" d="M46.315 41.431a.805.805 0 01-.805-.804V1.747a.804.804 0 111.61 0v38.88c0 .444-.36.804-.805.804zM12.573 56.075c-6.01 0-10.899 4.889-10.899 10.898 0 6.01 4.89 10.899 10.899 10.899 6.01 0 10.899-4.889 10.899-10.899 0-6.01-4.89-10.898-10.899-10.898zm0 23.406c-6.897 0-12.508-5.61-12.508-12.508 0-6.896 5.611-12.507 12.508-12.507 6.897 0 12.508 5.61 12.508 12.507 0 6.898-5.61 12.508-12.508 12.508z" fill="#000"/><path fill-rule="evenodd" clip-rule="evenodd" d="M21.917 54.33a11.652 11.652 0 012.36 7.048c0 6.463-5.24 11.703-11.704 11.703S.87 67.841.87 61.378c0-6.464 5.24-11.703 11.703-11.703 1.791 0 3.488.402 5.006 1.121l4.338 3.534z" fill="#fff"/><path fill-rule="evenodd" clip-rule="evenodd" d="M12.573 73.886C5.676 73.886.065 68.275.065 61.378c0-6.897 5.611-12.508 12.508-12.508 1.871 0 3.672.403 5.35 1.2a.804.804 0 11-.689 1.453 10.801 10.801 0 00-4.661-1.044c-6.01 0-10.899 4.89-10.899 10.899 0 6.01 4.89 10.898 10.899 10.898 6.01 0 10.899-4.888 10.899-10.898 0-2.392-.76-4.66-2.197-6.563a.804.804 0 111.284-.97 12.398 12.398 0 012.522 7.533c0 6.897-5.61 12.508-12.508 12.508z" fill="#000"/><path fill-rule="evenodd" clip-rule="evenodd" d="M15.255 57.83c0-.85-.688-1.538-1.538-1.538h-1.685c-.85 0-1.538.689-1.538 1.538v2.157c0 .703.569 1.273 1.272 1.273h2.217c.703 0 1.272.569 1.272 1.272v2.274a1.42 1.42 0 01-1.421 1.421h-1.919a1.422 1.422 0 01-1.421-1.421l4.761-6.976z" fill="#F3F6F5"/><path fill-rule="evenodd" clip-rule="evenodd" d="M13.834 67.032h-1.919a2.229 2.229 0 01-2.226-2.226.805.805 0 111.61 0c0 .34.276.617.616.617h1.919c.34 0 .617-.277.617-.617v-2.274a.468.468 0 00-.468-.468h-2.217a2.08 2.08 0 01-2.077-2.077V57.83a2.346 2.346 0 012.343-2.343h1.685a2.346 2.346 0 012.343 2.343.805.805 0 01-1.61 0 .735.735 0 00-.733-.734h-1.685a.735.735 0 00-.734.734v2.157c0 .258.21.468.468.468h2.217a2.08 2.08 0 012.077 2.077v2.274a2.229 2.229 0 01-2.226 2.226z" fill="#000"/><path fill-rule="evenodd" clip-rule="evenodd" d="M12.875 55.553a.805.805 0 01-.805-.805v-.836a.805.805 0 111.61 0v.836c0 .445-.36.805-.805.805zm0 13.859a.805.805 0 01-.805-.805v-.836a.805.805 0 011.61 0v.836c0 .445-.36.805-.805.805zM4.19 75.94a.805.805 0 01-.806-.804V69.54a.805.805 0 011.61 0v5.595c0 .444-.36.805-.805.805zm4.277 2.344a.805.805 0 01-.805-.804v-5.141a.805.805 0 111.61 0v5.14a.805.805 0 01-.805.805zm12.506-2.344a.805.805 0 01-.805-.804V69.54a.805.805 0 011.61 0v5.595c0 .444-.36.805-.805.805zm-4.277 2.344a.805.805 0 01-.804-.804v-5.141a.805.805 0 111.609 0v5.14c0 .445-.36.805-.805.805zm-4.123 1.197a.805.805 0 01-.805-.804V73.08a.805.805 0 011.61 0v5.596c0 .444-.36.804-.805.804z" fill="#000"/></svg>