<svg width="94" height="95" fill="none" xmlns="http://www.w3.org/2000/svg"><path fill-rule="evenodd" clip-rule="evenodd" d="M39.622 61.056l-.978 1.057c-.977 1.055-2.205 1.87-3.665 2.44-1.462.572-3.157.892-5.07.963-.156-3.824.768-6.862 2.72-8.971l.981-1.057 6.012 5.568z" fill="#33A853"/><path fill-rule="evenodd" clip-rule="evenodd" d="M85.518 6.142a.707.707 0 01-.516-1.194l2.869-3.055a.71.71 0 011.035.97L86.034 5.92a.702.702 0 01-.516.223zm6.412 17.064a.756.756 0 01-.105-.008l-4.144-.62a.71.71 0 01-.598-.805.711.711 0 01.808-.596l4.144.62a.706.706 0 01.595.805.707.707 0 01-.7.604zM69.824 5.956a.712.712 0 01-.692-.55l-.935-4.085a.708.708 0 111.38-.317l.938 4.085a.712.712 0 01-.691.867z" fill="#000"/><path fill-rule="evenodd" clip-rule="evenodd" d="M46.224 61.734L32.448 48.98l3.623-6.631a98.234 98.234 0 0114.135-19.656l.842-.912a35.42 35.42 0 0121.91-11.12l6.95-.805a1.506 1.506 0 011.679 1.553l-.27 6.99a35.424 35.424 0 01-9.404 22.7l-.842.912a98.348 98.348 0 01-18.512 15.604l-6.335 4.12z" fill="#33A853"/><path fill-rule="evenodd" clip-rule="evenodd" d="M79.577 28.29c-.671 0-1.686-.566-3.344-1.808-1.585-1.189-3.606-2.905-5.686-4.832s-3.949-3.809-5.255-5.299c-1.953-2.226-2.43-3.252-1.812-3.92a.711.711 0 011.004-.038.707.707 0 01.187.75c.26.731 2.46 3.412 6.84 7.466 4.376 4.055 7.219 6.04 7.967 6.243a.71.71 0 01.802 1.133.909.909 0 01-.703.305zM61.493 40.95a6.47 6.47 0 11-9.496-8.79 6.47 6.47 0 019.496 8.79z" fill="#000"/><path fill-rule="evenodd" clip-rule="evenodd" d="M56.751 30.794a5.72 5.72 0 00-4.232 1.847 5.721 5.721 0 00-1.53 4.135 5.729 5.729 0 001.842 4.006 5.733 5.733 0 004.136 1.53 5.721 5.721 0 004.005-1.843 5.72 5.72 0 001.53-4.136 5.728 5.728 0 00-1.842-4.005 5.724 5.724 0 00-3.909-1.534zm-.011 12.939a7.119 7.119 0 01-4.87-1.911 7.124 7.124 0 01-2.296-4.992 7.114 7.114 0 011.905-5.152 7.129 7.129 0 014.992-2.296 7.145 7.145 0 015.153 1.906 7.131 7.131 0 012.293 4.99 7.113 7.113 0 01-1.905 5.153 7.128 7.128 0 01-5.272 2.302zM30.215 48.61a.702.702 0 01-.244-.043l-8.665-3.188a2.742 2.742 0 01-1.922-3.165 2.741 2.741 0 012.03-2.116l14.594-3.577a7.227 7.227 0 016.647 1.72.712.712 0 01.04 1.002.71.71 0 01-1.004.038 5.81 5.81 0 00-5.345-1.384L21.75 41.474a1.321 1.321 0 00-.978 1.02 1.32 1.32 0 00.941 1.528c.02.005.037.011.057.018l8.69 3.197a.709.709 0 01-.246 1.374zm22.999 25.712c-1.117 0-2.16-.69-2.566-1.777l-3.812-8.32a.71.71 0 01.349-.94.71.71 0 01.94.35l3.822 8.345a.39.39 0 01.022.055 1.319 1.319 0 001.596.82c.49-.138.859-.55.941-1.052l2.446-14.828a5.82 5.82 0 00-1.791-5.224.712.712 0 01-.04-1.001.711.711 0 011.004-.039 7.233 7.233 0 012.225 6.495l-2.444 14.827a2.749 2.749 0 01-1.956 2.186c-.243.07-.493.103-.736.103zm-19.337-4.747a.71.71 0 01-.182-1.394c3.24-.86 6.313-2.337 9.136-4.389a.708.708 0 11.833 1.146c-2.965 2.155-6.196 3.707-9.603 4.613a.707.707 0 01-.184.024zm-7.307.977a1.43 1.43 0 01-1.426-1.34c-.403-6.395.995-12.094 4.266-17.424a.708.708 0 111.207.741c-3.112 5.073-4.441 10.501-4.059 16.595a27.685 27.685 0 002.849-.157.708.708 0 11.15 1.41 33.09 33.09 0 01-2.968.175h-.02z" fill="#000"/><path fill-rule="evenodd" clip-rule="evenodd" d="M11.856 53.218a.711.711 0 01-.587-.308.71.71 0 01.184-.985l5.768-3.95a.708.708 0 11.802 1.17l-5.768 3.95a.701.701 0 01-.4.123zm31.017 31.554a.707.707 0 01-.61-1.071l2.484-4.172a.71.71 0 011.219.725l-2.483 4.172a.71.71 0 01-.61.346zM21.45 55.474a.709.709 0 01-.522-1.19l3.037-3.279a.71.71 0 111.04.963l-3.036 3.279a.703.703 0 01-.518.227zM33.877 84.43a.707.707 0 01-.547-1.157l2.948-3.603a.71.71 0 011.097.897l-2.948 3.603a.709.709 0 01-.55.26zm7.506-9.174a.71.71 0 01-.55-1.157l4.008-4.9a.71.71 0 011.097.897l-4.008 4.9a.704.704 0 01-.547.26z" fill="#33A853"/><path fill-rule="evenodd" clip-rule="evenodd" d="M10.232 64.639a.707.707 0 01-.547-1.16 6.414 6.414 0 001.462-4.075 6.414 6.414 0 00-6.409-6.406 6.378 6.378 0 00-3.582 1.094.708.708 0 01-.794-1.174 7.793 7.793 0 014.376-1.337c4.317 0 7.826 3.51 7.826 7.823 0 1.813-.634 3.58-1.785 4.977a.71.71 0 01-.547.258z" fill="#000"/><path fill-rule="evenodd" clip-rule="evenodd" d="M33.242 90.988a.711.711 0 01-.655-.433 3.445 3.445 0 00-3.18-2.106 3.436 3.436 0 00-2.715 1.32.708.708 0 01-1.208-.716c.36-.839.541-1.73.541-2.65a6.761 6.761 0 00-2.763-5.438 1.875 1.875 0 01-.791-1.65 5.346 5.346 0 00-.034-1.076c-.3-2.36-2.373-4.137-4.819-4.137h-.011c-.47 0-.879-.286-1.04-.728a1.09 1.09 0 01.326-1.222 4.74 4.74 0 001.686-3.897c-.07-1.294-.683-2.453-1.729-3.264a4.717 4.717 0 00-3.815-.899l-2.664.533a.708.708 0 11-.278-1.39l2.664-.533a6.126 6.126 0 014.96 1.169 5.86 5.86 0 012.288 4.646 6.149 6.149 0 01-1.661 4.208c2.834.322 5.136 2.506 5.499 5.334.06.474.074.918.042 1.357-.011.15.068.3.213.404a8.179 8.179 0 013.274 7.654 4.878 4.878 0 012.035-.442 4.864 4.864 0 014.487 2.97.709.709 0 01-.652.986z" fill="#000"/><path fill-rule="evenodd" clip-rule="evenodd" d="M44.722 93.696a.71.71 0 01-.697-.839 5.09 5.09 0 00-4.997-6.024 5.094 5.094 0 00-4.978 4.058.708.708 0 01-1.39-.284c.616-3.008 3.295-5.19 6.367-5.19a6.508 6.508 0 016.502 6.499c0 .403-.04.808-.113 1.202a.707.707 0 01-.694.578z" fill="#000"/></svg>