<svg width="99" height="101" fill="none" xmlns="http://www.w3.org/2000/svg"><path fill-rule="evenodd" clip-rule="evenodd" d="M88.523 47.489c.537-.567 1.3-.9 2.112-.9h5.694c.937 0 1.693-.76 1.693-1.697v-8.694a1.69 1.69 0 00-1.693-1.692h-5.694c-1.212 0-2.318-.747-2.718-1.893a23.889 23.889 0 00-1.074-2.587c-.53-1.093-.282-2.41.58-3.271l4.027-4.028a1.696 1.696 0 000-2.396l-6.146-6.147a1.696 1.696 0 00-2.397 0l-4.03 4.028c-.859.861-2.175 1.11-3.269.58-.838-.407-1.7-.767-2.587-1.078-1.146-.396-1.892-1.503-1.892-2.718v-5.69c0-.937-.76-1.697-1.693-1.697h-8.697c-.933 0-1.693.76-1.693 1.696v5.691c0 1.215-.746 2.322-1.893 2.718a24.06 24.06 0 00-2.583 1.078c-1.097.53-2.413.281-3.271-.58l-4.031-4.028a1.692 1.692 0 00-2.394 0l-6.15 6.147a1.696 1.696 0 000 2.396l4.032 4.028c.86.861 1.106 2.178.576 3.271-.406.838-.766 1.7-1.074 2.587-.4 1.146-1.506 1.893-2.718 1.893h-5.694a1.69 1.69 0 00-1.693 1.693v8.693c0 .937.756 1.696 1.693 1.696h5.694c1.212 0 2.318.747 2.718 1.89a23.7 23.7 0 001.074 2.587c.53 1.097.285 2.41-.576 3.27l-4.031 4.032a1.692 1.692 0 000 2.393l6.15 6.15a1.692 1.692 0 002.393 0l4.03-4.031c.859-.861 2.175-1.11 3.272-.576.835.406 1.696.766 2.583 1.074 1.147.4 1.893 1.506 1.893 2.717v5.695c0 .933.76 1.693 1.693 1.693h8.697c.933 0 1.693-.76 1.693-1.693v-5.695c0-1.211.746-2.318 1.892-2.717a23.87 23.87 0 002.587-1.074c1.094-.534 2.41-.285 3.268.576l4.031 4.03a1.696 1.696 0 002.397 0l6.146-6.149a1.692 1.692 0 000-2.393l-4.027-4.031c-.862-.861-1.11-2.174-.58-3.271l1.68-3.576z" fill="#fff"/><path fill-rule="evenodd" clip-rule="evenodd" d="M69.436 74.3h-8.697a2.514 2.514 0 01-2.511-2.511v-5.695c0-.884-.54-1.663-1.343-1.945a25.719 25.719 0 01-2.675-1.11c-.77-.376-1.71-.206-2.332.42l-4.03 4.027a2.51 2.51 0 01-3.553 0l-6.15-6.146a2.516 2.516 0 010-3.553l4.031-4.03c.625-.626.796-1.563.42-2.335a24.698 24.698 0 01-1.11-2.672c-.282-.806-1.062-1.343-1.946-1.343h-5.694a2.517 2.517 0 01-2.512-2.515V36.2a2.514 2.514 0 012.512-2.512h5.694c.884 0 1.663-.54 1.945-1.343.314-.91.691-1.81 1.11-2.675.377-.77.206-1.709-.419-2.334l-4.03-4.028a2.496 2.496 0 01-.734-1.778c0-.671.258-1.303.733-1.778l6.15-6.146a2.513 2.513 0 013.552 0l4.028 4.027c.629.629 1.565.796 2.335.423a25.621 25.621 0 012.675-1.114c.802-.278 1.343-1.06 1.343-1.945v-5.69a2.517 2.517 0 012.511-2.515h8.697a2.517 2.517 0 012.511 2.514v5.691c0 .884.54 1.667 1.343 1.945.907.318 1.804.691 2.675 1.114.77.373 1.71.203 2.335-.423l4.028-4.027a2.516 2.516 0 013.552 0l6.15 6.146a2.5 2.5 0 01.737 1.778 2.5 2.5 0 01-.737 1.778l-4.031 4.028c-.625.625-.792 1.565-.42 2.334.423.868.797 1.768 1.114 2.675.279.803 1.061 1.343 1.942 1.343h5.694a2.514 2.514 0 012.512 2.512v8.693a2.517 2.517 0 01-2.512 2.515h-5.694c-.576 0-1.13.236-1.52.645a.817.817 0 01-1.155.03.818.818 0 01-.033-1.156 3.742 3.742 0 012.708-1.156h5.694a.877.877 0 00.875-.878V36.2a.876.876 0 00-.875-.875h-5.694c-1.578 0-2.98-.982-3.49-2.442a22.977 22.977 0 00-1.039-2.499c-.677-1.398-.383-3.088.737-4.204l4.028-4.031a.864.864 0 00.258-.62.864.864 0 00-.258-.618l-6.146-6.15a.877.877 0 00-1.238 0l-4.031 4.031c-1.117 1.12-2.81 1.415-4.205.737a22.59 22.59 0 00-2.498-1.038c-1.46-.51-2.443-1.912-2.443-3.494v-5.69a.877.877 0 00-.874-.878h-8.697a.877.877 0 00-.874.877v5.691c0 1.582-.98 2.983-2.44 3.49a22.73 22.73 0 00-2.498 1.042c-1.398.678-3.091.383-4.208-.736l-4.03-4.031a.874.874 0 00-1.239.003l-6.146 6.146a.861.861 0 00-.255.619c0 .232.088.455.255.619l4.028 4.03c1.12 1.117 1.414 2.807.737 4.205a23.13 23.13 0 00-1.038 2.499c-.511 1.46-1.913 2.442-3.49 2.442h-5.695a.876.876 0 00-.874.875v8.693c0 .485.392.878.874.878h5.694c1.578 0 2.98.979 3.49 2.44.295.847.646 1.689 1.039 2.498.677 1.398.383 3.088-.737 4.207l-4.028 4.028a.877.877 0 000 1.238l6.146 6.15c.344.34.898.34 1.238 0l4.031-4.032c1.117-1.116 2.81-1.414 4.208-.733.809.393 1.647.743 2.498 1.038 1.46.507 2.44 1.912 2.44 3.49v5.695c0 .481.393.874.874.874h8.697a.876.876 0 00.874-.874v-5.695c0-1.578.983-2.983 2.443-3.49a23.038 23.038 0 002.495-1.038c1.402-.678 3.091-.383 4.208.733l4.03 4.031a.897.897 0 001.239 0l6.146-6.15a.878.878 0 000-1.237l-4.028-4.028c-1.12-1.12-1.415-2.81-.737-4.207a.818.818 0 111.474.714c-.373.772-.206 1.709.419 2.334l4.03 4.031c.98.98.98 2.574 0 3.553l-6.149 6.146a2.492 2.492 0 01-1.774.737 2.5 2.5 0 01-1.778-.737L78.3 63.458c-.626-.625-1.565-.795-2.335-.419-.868.42-1.765.793-2.675 1.11-.802.282-1.343 1.061-1.343 1.945v5.695a2.514 2.514 0 01-2.511 2.511zM27.929 8.002a.821.821 0 01-.622-.288l-3.298-3.85a.82.82 0 01.089-1.157.816.816 0 011.152.092l3.301 3.85a.82.82 0 01-.622 1.353zm20.085-.573a.82.82 0 01-.792-1.025l1.29-4.905a.819.819 0 111.582.416L48.807 6.82a.82.82 0 01-.793.609zM20.61 27.452a.818.818 0 01-.095-1.63l5.037-.59a.819.819 0 11.193 1.624l-5.04.593c-.032.003-.065.003-.095.003z" fill="#000"/><path fill-rule="evenodd" clip-rule="evenodd" d="M60.166 100.676H5.698a2.831 2.831 0 01-2.832-2.832V43.376a2.83 2.83 0 012.832-2.83h54.468a2.83 2.83 0 012.83 2.83v54.468a2.83 2.83 0 01-2.83 2.832z" fill="#FBBC02"/><path fill-rule="evenodd" clip-rule="evenodd" d="M52.825 55.253H13.973a.819.819 0 010-1.638h38.852a.819.819 0 010 1.638z" fill="#000"/><path fill-rule="evenodd" clip-rule="evenodd" d="M20.45 58.262h5.606v-7.66H20.45v7.66z" fill="#fff"/><path fill-rule="evenodd" clip-rule="evenodd" d="M21.269 57.443h3.968v-6.022H21.27v6.022zm4.787 1.637H20.45a.819.819 0 01-.819-.818v-7.66a.82.82 0 01.819-.818h5.606a.82.82 0 01.819.819v7.659a.819.819 0 01-.82.818zm26.769 13.38H13.973a.819.819 0 010-1.637h38.852a.819.819 0 010 1.637z" fill="#000"/><path fill-rule="evenodd" clip-rule="evenodd" d="M38.476 75.472h5.609v-7.658h-5.61v7.659z" fill="#fff"/><path fill-rule="evenodd" clip-rule="evenodd" d="M39.294 74.654h3.972v-6.022h-3.971v6.022zm4.791 1.637h-5.61a.819.819 0 01-.818-.819v-7.658a.82.82 0 01.819-.82h5.609a.82.82 0 01.819.82v7.659a.819.819 0 01-.819.818zm8.74 13.379H13.973a.819.819 0 010-1.637h38.852a.819.819 0 010 1.638z" fill="#000"/><path fill-rule="evenodd" clip-rule="evenodd" d="M29.35 92.683h5.606v-7.662H29.35v7.662z" fill="#fff"/><path fill-rule="evenodd" clip-rule="evenodd" d="M30.169 91.864h3.968V85.84H30.17v6.025zm4.787 1.638H29.35a.817.817 0 01-.819-.819v-7.662c0-.452.364-.819.82-.819h5.605a.82.82 0 01.819.819v7.662a.819.819 0 01-.819.819zM79.97 40.547c0 8.219-6.663 14.883-14.882 14.883-8.22 0-14.883-6.664-14.883-14.883 0-8.222 6.664-14.882 14.883-14.882s14.882 6.66 14.882 14.882z" fill="#000"/><path fill-rule="evenodd" clip-rule="evenodd" d="M63.306 56.14c-.032 0-.065 0-.098-.003-7.882-.943-13.822-7.643-13.822-15.59a.819.819 0 011.638 0c0 7.115 5.32 13.12 12.377 13.962.449.056.77.462.717.91a.822.822 0 01-.812.72zm-1.811-10.334a.799.799 0 01-.514-.183.817.817 0 01-.124-1.15l3.412-4.217v-9.604a.817.817 0 111.637 0v9.895a.804.804 0 01-.183.514l-3.592 4.44a.813.813 0 01-.636.305z" fill="#fff"/></svg>