<svg width="83" height="66" fill="none" xmlns="http://www.w3.org/2000/svg"><path fill="#C0D547" d="M0 0h83v66H0z"/><path fill-rule="evenodd" clip-rule="evenodd" d="M32.408 52.42c2.01 0 6.949-.348 10.646-3.055v2.051h7.451l.014-9 3.112-3.222 6.78 12.222h8.945l-10.27-17.468 10.004-11.01h-9.153l-9.418 10.8V13.005h-7.465v3.278C40.78 13.843 37.097 12 31.348 12c-12.432 0-14.762 7.562-14.762 11.804 0 5.818 3.125 9.055 8.581 10.367l7.73 1.897c4.074 1.005 6.99 1.745 6.99 4.758 0 4.019-4.242 4.981-8.05 4.981-6.99 0-8.149-4.074-8.149-6.237H16c0 4.758 2.428 12.85 16.408 12.85zm5.08-22.91l-9.363-2.274c-1.59-.376-4.074-1.004-4.074-4.018 0-3.446 3.655-4.604 6.725-4.604 6.99 0 7.618 4.074 7.827 5.818h4.451v7.158c-1.632-.95-3.571-1.577-5.567-2.08z" fill="#222"/></svg>